<?xml version="1.0" encoding="UTF-8" standalone="no"?>
<svg
   xmlns:dc="http://purl.org/dc/elements/1.1/"
   xmlns:cc="http://creativecommons.org/ns#"
   xmlns:rdf="http://www.w3.org/1999/02/22-rdf-syntax-ns#"
   xmlns:svg="http://www.w3.org/2000/svg"
   xmlns="http://www.w3.org/2000/svg"
   xmlns:sodipodi="http://sodipodi.sourceforge.net/DTD/sodipodi-0.dtd"
   xmlns:inkscape="http://www.inkscape.org/namespaces/inkscape"
   viewBox="0 0 350 240"
   height="240"
   width="350"
   xml:space="preserve"
   id="svg2"
   version="1.1"
   inkscape:version="0.92.4 (5da689c313, 2019-01-14)"
   sodipodi:docname="Elephpant_print_01.svg"><sodipodi:namedview
     pagecolor="#ffffff"
     bordercolor="#666666"
     borderopacity="1"
     objecttolerance="10"
     gridtolerance="10"
     guidetolerance="10"
     inkscape:pageopacity="0"
     inkscape:pageshadow="2"
     inkscape:window-width="3840"
     inkscape:window-height="2123"
     id="namedview194"
     showgrid="false"
     inkscape:zoom="8.0958333"
     inkscape:cx="174.3824"
     inkscape:cy="120"
     inkscape:window-x="0"
     inkscape:window-y="1050"
     inkscape:window-maximized="1"
     inkscape:current-layer="svg2" /><metadata
     id="metadata8"><rdf:RDF><cc:Work
         rdf:about=""><dc:format>image/svg+xml</dc:format><dc:type
           rdf:resource="http://purl.org/dc/dcmitype/StillImage" /><dc:title></dc:title></cc:Work></rdf:RDF></metadata><defs
     id="defs6"><clipPath
       id="clipPath20"
       clipPathUnits="userSpaceOnUse"><path
         id="path18"
         d="m 366.672,2445.95 c 0,0 127.719,141.37 216.176,199.96 28.183,18.65 237.797,128.95 372.402,-250.67 73.64,-207.85 74.87,-362.68 -92.516,-428.71 -100.234,-39.55 -64.41,-113.59 -64.41,-113.59"
         inkscape:connector-curvature="0" /></clipPath><linearGradient
       id="linearGradient26"
       spreadMethod="pad"
       gradientTransform="matrix(870.829,-648.982,-648.982,-870.829,1062.31,2048.82)"
       gradientUnits="userSpaceOnUse"
       y2="0"
       x2="1"
       y1="0"
       x1="0"><stop
         id="stop22"
         offset="0"
         style="stop-opacity:1;stop-color:#8c9bd6" /><stop
         id="stop24"
         offset="1"
         style="stop-opacity:1;stop-color:#505e9b" /></linearGradient><clipPath
       id="clipPath38"
       clipPathUnits="userSpaceOnUse"><path
         id="path36"
         d="m 2084.18,2364.09 268.24,0 c 22.51,0 40.74,-14.93 40.74,-33.29 l 0,0 c 0,-18.37 -18.23,-33.27 -40.74,-33.27 l -210.54,0 z"
         inkscape:connector-curvature="0" /></clipPath><linearGradient
       id="linearGradient44"
       spreadMethod="pad"
       gradientTransform="matrix(878.069,-654.378,-654.378,-878.069,1631.85,2795.24)"
       gradientUnits="userSpaceOnUse"
       y2="0"
       x2="1"
       y1="0"
       x1="0"><stop
         id="stop40"
         offset="0"
         style="stop-opacity:1;stop-color:#808fd0" /><stop
         id="stop42"
         offset="1"
         style="stop-opacity:1;stop-color:#505e9b" /></linearGradient><clipPath
       id="clipPath68"
       clipPathUnits="userSpaceOnUse"><path
         id="path66"
         d="m 1150.12,1702.08 0,-535.82 c 0,-132.12 -131.1,-179.471 -292.784,-179.471 l 0,0 c -161.711,0 -292.746,47.351 -292.746,179.471 l 0,542.14"
         inkscape:connector-curvature="0" /></clipPath><linearGradient
       id="linearGradient74"
       spreadMethod="pad"
       gradientTransform="matrix(867.01,-646.136,-646.136,-867.01,668.276,1535.96)"
       gradientUnits="userSpaceOnUse"
       y2="0"
       x2="1"
       y1="0"
       x1="0"><stop
         id="stop70"
         offset="0"
         style="stop-opacity:1;stop-color:#8c9bd6" /><stop
         id="stop72"
         offset="1"
         style="stop-opacity:1;stop-color:#505e9b" /></linearGradient><clipPath
       id="clipPath98"
       clipPathUnits="userSpaceOnUse"><path
         id="path96"
         d="m 2045.81,1695.54 0,-535.81 c 0,-132.14 -131.09,-179.468 -292.78,-179.468 l 0,0 c -161.7,0 -292.79,47.328 -292.79,179.468 l 0,542.13"
         inkscape:connector-curvature="0" /></clipPath><linearGradient
       id="linearGradient104"
       spreadMethod="pad"
       gradientTransform="matrix(867.001,-646.13,-646.13,-867.001,994.502,1953.79)"
       gradientUnits="userSpaceOnUse"
       y2="0"
       x2="1"
       y1="0"
       x1="0"><stop
         id="stop100"
         offset="0"
         style="stop-opacity:1;stop-color:#8c9bd6" /><stop
         id="stop102"
         offset="1"
         style="stop-opacity:1;stop-color:#505e9b" /></linearGradient><clipPath
       id="clipPath128"
       clipPathUnits="userSpaceOnUse"><path
         id="path126"
         d="m 903.801,2433.88 c 114.029,-185.4 101.879,-342.02 -50.055,-424.12 -90.965,-49.18 -40.887,-114.04 -40.887,-114.04"
         inkscape:connector-curvature="0" /></clipPath><linearGradient
       id="linearGradient134"
       spreadMethod="pad"
       gradientTransform="matrix(841.599,-627.199,-627.199,-841.599,1039.39,2029.86)"
       gradientUnits="userSpaceOnUse"
       y2="0"
       x2="1"
       y1="0"
       x1="0"><stop
         id="stop130"
         offset="0"
         style="stop-opacity:1;stop-color:#808fd0" /><stop
         id="stop132"
         offset="1"
         style="stop-opacity:1;stop-color:#505e9b" /></linearGradient><clipPath
       id="clipPath146"
       clipPathUnits="userSpaceOnUse"><path
         id="path144"
         d="m 1569.91,2565.32 c 0,0 -189.32,2.23 -881.043,-20.69 C -2.81641,2521.72 22.7109,2273.69 21.6367,1917.49 l 0,-856.76 c 0,-72.468 62.793,-101.699 140.2733,-101.699 77.469,0 140.356,29.231 140.356,101.699 0,0 17.863,244.81 33.285,393.73 34.5,541.01 687.579,-88.96 1162.329,-59.56 431.41,26.74 771.15,175.65 771.15,529.54 0,353.97 -222.65,640.88 -699.12,640.88 z"
         inkscape:connector-curvature="0" /></clipPath><linearGradient
       id="linearGradient152"
       spreadMethod="pad"
       gradientTransform="matrix(875.231,-652.263,-652.263,-875.231,894.629,1822.24)"
       gradientUnits="userSpaceOnUse"
       y2="0"
       x2="1"
       y1="0"
       x1="0"><stop
         id="stop148"
         offset="0"
         style="stop-opacity:1;stop-color:#8c9bd6" /><stop
         id="stop150"
         offset="1"
         style="stop-opacity:1;stop-color:#505e9b" /></linearGradient><clipPath
       id="clipPath164"
       clipPathUnits="userSpaceOnUse"><path
         id="path162"
         d="m 40.5078,1894 c 0.7383,-80.46 -10.5781,-783.24 33.8086,-825.44 -13.9453,31.12 16.5625,711.97 16.1719,754.76 l -0.4102,25.04 c 0,11.92 0,23.67 0,35.37 -17.1093,6.32 -33.7148,14.09 -49.7461,22.98 z"
         inkscape:connector-curvature="0" /></clipPath><linearGradient
       id="linearGradient170"
       spreadMethod="pad"
       gradientTransform="matrix(579.497,-844.587,-844.587,-579.497,-304.165,2038.99)"
       gradientUnits="userSpaceOnUse"
       y2="0"
       x2="1"
       y1="0"
       x1="0"><stop
         id="stop166"
         offset="0"
         style="stop-opacity:1;stop-color:#fafafd" /><stop
         id="stop168"
         offset="1"
         style="stop-opacity:1;stop-color:#8892d2" /></linearGradient><clipPath
       id="clipPath180"
       clipPathUnits="userSpaceOnUse"><path
         id="path178"
         d="m 1569.65,2541.75 c 0,0 -185.21,2.18 -862.005,-20.24 C 30.8789,2499.09 41.2656,2249.73 41.2656,1914.49 l 0.1406,-12.4 c 15.6641,-8.89 31.8985,-16.66 48.5586,-22.99 0.1563,317.27 13.6482,550.06 666.4062,571.68 676.769,22.42 862.039,20.24 862.039,20.24 258.82,0 437,-87.38 547.94,-223.71 -102.14,176.42 -295.52,294.44 -596.7,294.44 z"
         inkscape:connector-curvature="0" /></clipPath><linearGradient
       id="linearGradient186"
       spreadMethod="pad"
       gradientTransform="matrix(675.246,-984.137,-984.137,-675.246,649.966,2737.72)"
       gradientUnits="userSpaceOnUse"
       y2="0"
       x2="1"
       y1="0"
       x1="0"><stop
         id="stop182"
         offset="0"
         style="stop-opacity:1;stop-color:#fafafd" /><stop
         id="stop184"
         offset="1"
         style="stop-opacity:1;stop-color:#8892d2" /></linearGradient><clipPath
       id="clipPath196"
       clipPathUnits="userSpaceOnUse"><path
         id="path194"
         d="m 1333.93,1456.26 0,-381.58 c 0,-132.121 -131.13,-179.571 -292.82,-179.571 l 0,0 c -161.696,0 -292.755,47.45 -292.755,179.571 l 0,580.79"
         inkscape:connector-curvature="0" /></clipPath><linearGradient
       id="linearGradient202"
       spreadMethod="pad"
       gradientTransform="matrix(866.559,-645.8,-645.8,-866.559,654.526,1514.45)"
       gradientUnits="userSpaceOnUse"
       y2="0"
       x2="1"
       y1="0"
       x1="0"><stop
         id="stop198"
         offset="0"
         style="stop-opacity:1;stop-color:#8c9bd6" /><stop
         id="stop200"
         offset="1"
         style="stop-opacity:1;stop-color:#505e9b" /></linearGradient><clipPath
       id="clipPath232"
       clipPathUnits="userSpaceOnUse"><path
         id="path230"
         d="m 2229.92,1718.48 0,-628.88 c 0,-132.112 -131.12,-179.53 -292.81,-179.53 l 0,0 c -161.71,0 -292.75,47.418 -292.75,179.53 l 0,361.33"
         inkscape:connector-curvature="0" /></clipPath><linearGradient
       id="linearGradient238"
       spreadMethod="pad"
       gradientTransform="matrix(869.571,-648.045,-648.045,-869.571,1046.59,2028.58)"
       gradientUnits="userSpaceOnUse"
       y2="0"
       x2="1"
       y1="0"
       x1="0"><stop
         id="stop234"
         offset="0"
         style="stop-opacity:1;stop-color:#8c9bd6" /><stop
         id="stop236"
         offset="1"
         style="stop-opacity:1;stop-color:#505e9b" /></linearGradient><clipPath
       id="clipPath298"
       clipPathUnits="userSpaceOnUse"><path
         id="path296"
         d="m 571.879,2500.55 c 0,0 171.527,117.93 279.867,158.35 34.531,12.89 283.674,78.71 324.064,-351.49 22.08,-235.55 -17.68,-398.24 -210.83,-427.71 -115.589,-17.66 -97.691,-103.81 -97.691,-103.81"
         inkscape:connector-curvature="0" /></clipPath><linearGradient
       id="linearGradient304"
       spreadMethod="pad"
       gradientTransform="matrix(868.236,-647.05,-647.05,-868.236,1098.5,2096.02)"
       gradientUnits="userSpaceOnUse"
       y2="0"
       x2="1"
       y1="0"
       x1="0"><stop
         id="stop300"
         offset="0"
         style="stop-opacity:1;stop-color:#8c9bd6" /><stop
         id="stop302"
         offset="1"
         style="stop-opacity:1;stop-color:#505e9b" /></linearGradient><clipPath
       id="clipPath316"
       clipPathUnits="userSpaceOnUse"><path
         id="path314"
         d="m 747.344,2531.75 c 194.211,121.45 302.026,59.35 302.026,59.35 -84.444,77.21 -179.436,51.62 -200.444,43.74 -107.969,-40.42 -316.485,-189.8 -316.485,-189.8 0,0 -28.195,-50.01 27.989,-39.16 0,0 122.211,85.38 186.914,125.87 z"
         inkscape:connector-curvature="0" /></clipPath><linearGradient
       id="linearGradient322"
       spreadMethod="pad"
       gradientTransform="matrix(690.106,-1005.8,-1005.8,-690.106,633.604,2727.32)"
       gradientUnits="userSpaceOnUse"
       y2="0"
       x2="1"
       y1="0"
       x1="0"><stop
         id="stop318"
         offset="0"
         style="stop-opacity:1;stop-color:#fafafd" /><stop
         id="stop320"
         offset="1"
         style="stop-opacity:1;stop-color:#8892d2" /></linearGradient></defs><g
     id="g14"
     transform="matrix(0.13282467,0,0,-0.1317441,8.1337521e-7,355.17886)"
     style="fill:#777777;fill-opacity:1"><g
       clip-path="url(#clipPath20)"
       id="g16"
       style="fill:#777777;fill-opacity:1"><path
         id="path28"
         style="fill:#777777;fill-opacity:1;fill-rule:nonzero;stroke:none"
         d="m 366.672,2445.95 c 0,0 127.719,141.37 216.176,199.96 28.183,18.65 237.797,128.95 372.402,-250.67 73.64,-207.85 74.87,-362.68 -92.516,-428.71 -100.234,-39.55 -64.41,-113.59 -64.41,-113.59"
         inkscape:connector-curvature="0" /></g></g><path
     id="path30"
     style="fill:#000000;fill-opacity:1;fill-rule:nonzero;stroke:none;stroke-width:0.99212468"
     d="M 75.791485,4.3271819 C 63.873128,12.156734 47.234181,30.362449 46.532203,31.131838 c -1.040283,1.14485 -0.91835,2.885196 0.279729,3.881182 1.19489,0.994661 3.010869,0.880044 4.052613,-0.26613 0.169219,-0.185759 16.867272,-18.456026 28.180082,-25.8850792 0.338837,-0.2265966 8.591631,-5.5227097 18.64274,-2.335823 10.569923,3.3528941 19.726593,15.1057792 26.472623,33.9833892 10.73941,30.057418 7.55441,45.925996 -10.65307,53.04413 -5.25268,2.060485 -8.71091,5.037898 -10.27519,8.867703 -2.06449,5.05107 0.10998,9.61336 0.20389,9.80835 0.66413,1.36882 2.3514,1.94981 3.78444,1.3227 1.43677,-0.62051 2.07445,-2.24492 1.43411,-3.62428 -0.0109,-0.0264 -1.23899,-2.73237 -0.0419,-5.5675 0.98423,-2.33977 3.36205,-4.26719 7.06932,-5.713742 C 143.14917,87.895104 137.5453,60.978459 129.59587,38.726879 122.13962,17.867841 112.01427,5.2810059 99.498197,1.3076069 86.986643,-2.6618397 76.897679,3.6039067 75.791515,4.3271819"
     inkscape:connector-curvature="0" /><g
     id="g32"
     transform="matrix(0.13282467,0,0,-0.1317441,8.1337521e-7,355.17886)"
     style="fill:#777777;fill-opacity:1"><g
       clip-path="url(#clipPath38)"
       id="g34"
       style="fill:#777777;fill-opacity:1"><path
         id="path46"
         style="fill:#777777;fill-opacity:1;fill-rule:nonzero;stroke:none"
         d="m 2084.18,2364.09 h 268.24 c 22.51,0 40.74,-14.93 40.74,-33.29 v 0 c 0,-18.37 -18.23,-33.27 -40.74,-33.27 h -210.54 l -57.7,66.56"
         inkscape:connector-curvature="0" /></g></g><path
     id="path48"
     style="fill:#000000;fill-opacity:1;fill-rule:nonzero;stroke:none;stroke-width:0.99212468"
     d="m 312.45942,46.472119 c 1.49561,0 2.53562,0.864244 2.53562,1.637576 0,0.772027 -1.04001,1.636262 -2.53562,1.636262 0,0 -24.18472,0 -26.62205,0 -0.57247,-0.65081 -1.42919,-1.640215 -2.85839,-3.273838 8.41976,0 29.48044,0 29.48044,0 z m -41.77469,-5.496368 12.46692,14.267887 h 29.30777 c 4.57049,0 8.28427,-3.200058 8.28427,-7.133943 0,-3.93519 -3.71378,-7.133944 -8.28427,-7.133944 h -41.77469"
     inkscape:connector-curvature="0" /><path
     id="path50"
     style="fill:#777777;fill-opacity:1;fill-rule:nonzero;stroke:none;stroke-width:0.99212468"
     d="m 323.48519,33.529574 c 4.89858,-2.314737 10.62332,-1.748241 12.80031,1.26343 2.16638,3.019575 -0.0451,7.331559 -4.9424,9.655525 -4.88928,2.312109 -17.70685,5.10904 -19.87987,2.085513 -2.17567,-3.011671 7.13136,-10.691035 12.02196,-13.004468"
     inkscape:connector-curvature="0" /><path
     id="path52"
     style="fill:#000000;fill-opacity:1;fill-rule:nonzero;stroke:none;stroke-width:0.99212468"
     d="m 324.755,35.993196 v 0 c 3.80012,-1.794355 7.97213,-1.288458 9.16224,0.362289 0.33074,0.462422 0.40777,0.993358 0.2351,1.628358 -0.30682,1.146173 -1.54342,2.798244 -4.08701,4.003703 -4.72325,2.231749 -13.11113,3.541282 -15.70253,2.90891 0.95633,-2.130302 6.20291,-6.919194 10.3922,-8.90326 z m -2.54227,-4.925919 v 0 c -4.09631,1.932686 -12.42708,8.094358 -13.74469,12.964944 l 0.63224,4.061664 c 3.9356,5.483197 19.81346,0.570459 23.51528,-1.183058 3.68722,-1.745613 6.27464,-4.49643 7.1008,-7.547624 0.59108,-2.175092 0.21253,-4.350183 -1.06657,-6.127415 -3.00051,-4.157844 -10.21555,-5.10904 -16.43706,-2.168511"
     inkscape:connector-curvature="0" /><path
     id="path54"
     style="fill:#777777;fill-opacity:1;fill-rule:nonzero;stroke:none;stroke-width:0.99212468"
     d="m 332.18786,51.322934 c 5.25189,1.739022 8.17669,5.766439 6.55623,8.99944 -1.63507,3.236952 -7.20706,4.438459 -12.45497,2.69417 -5.23993,-1.73507 -15.77957,-8.277479 -14.15247,-11.506527 1.63374,-3.243543 14.81128,-1.926106 20.05121,-0.187083"
     inkscape:connector-curvature="0" /><path
     id="path56"
     style="fill:#000000;fill-opacity:1;fill-rule:nonzero;stroke:none;stroke-width:0.99212468"
     d="m 333.13225,48.728895 h -0.005 z m -1.88611,5.189401 h 0.003 c 2.82119,0.939339 4.36594,2.500506 4.86669,3.651946 0.3812,0.880054 0.12353,1.396485 0.0359,1.56512 -0.86336,1.715309 -4.86802,2.62961 -8.9205,1.284505 -4.6316,-1.532187 -10.85842,-5.849438 -12.03126,-7.836142 2.17301,-0.721951 10.97928,-0.347805 16.04655,1.334571 z m -21.69691,-3.600567 0.003,3.987894 c 2.02291,4.661104 11.35783,9.839971 15.79816,11.31155 6.67842,2.219891 13.7022,0.418946 15.98013,-4.093293 0.48482,-0.973586 0.72656,-2.018313 0.72656,-3.077536 0,-0.998624 -0.21253,-2.00778 -0.64022,-2.995861 -1.28707,-2.957662 -4.3075,-5.40415 -8.28958,-6.721588 -3.97279,-1.32139 -20.57588,-4.375222 -23.57771,1.588834"
     inkscape:connector-curvature="0" /><path
     id="path58"
     style="fill:#777777;fill-opacity:1;fill-rule:nonzero;stroke:none;stroke-width:0.99212468"
     d="m 332.95559,41.359127 c 7.79282,-0.0501 14.14051,2.735007 14.16974,6.227547 0.0385,3.491215 -6.24276,6.360602 -14.03957,6.410668 -7.78087,0.05266 -25.41467,-2.652009 -25.45053,-6.140596 -0.0359,-3.496482 17.53817,-6.439649 25.32036,-6.497619"
     inkscape:connector-curvature="0" /><path
     id="path60"
     style="fill:#000000;fill-opacity:1;fill-rule:nonzero;stroke:none;stroke-width:0.99212468"
     d="m 344.25233,47.613026 c 0,0.133055 -0.12486,0.392594 -0.47418,0.732494 -1.40795,1.374094 -5.36612,2.868072 -10.70966,2.902319 -6.68241,0.04476 -17.25259,-1.753507 -21.31968,-3.422712 4.03786,-1.731117 14.55625,-3.671708 21.22936,-3.716498 h -0.003 c 7.37974,-0.04871 11.27017,2.580868 11.27681,3.504397 z M 332.93832,38.60831 h -0.004 c -5.66099,0.04081 -22.4726,2.018323 -26.78542,6.210423 l -1.38536,3.065679 c 0.0797,8.081187 28.06054,8.863747 28.34345,8.863747 6.27065,-0.04348 11.93164,-1.783812 14.77144,-4.546486 1.40793,-1.368828 2.1398,-2.970833 2.1212,-4.642665 -0.0438,-5.244733 -7.22035,-9.011297 -17.06133,-8.950698"
     inkscape:connector-curvature="0" /><g
     id="g62"
     transform="matrix(0.13282467,0,0,-0.1317441,8.1337521e-7,355.17886)"
     style="fill:#777777;fill-opacity:1"><g
       clip-path="url(#clipPath68)"
       id="g64"
       style="fill:#777777;fill-opacity:1"><path
         id="path76"
         style="fill:#777777;fill-opacity:1;fill-rule:nonzero;stroke:none"
         d="m 1150.12,1702.08 v -535.82 c 0,-132.12 -131.1,-179.471 -292.784,-179.471 v 0 c -161.711,0 -292.746,47.351 -292.746,179.471 v 542.14"
         inkscape:connector-curvature="0" /></g></g><path
     id="path78"
     style="fill:#000000;fill-opacity:1;fill-rule:nonzero;stroke:none;stroke-width:0.99212468"
     d="m 72.118618,130.10723 v 71.42375 c 0,17.02265 14.825491,26.39388 41.756752,26.39388 26.93074,0 41.76194,-9.37123 41.76194,-26.39388 v -70.59112 c 0,-1.51902 -1.28707,-2.75082 -2.873,-2.75082 -1.58725,0 -2.87299,1.2318 -2.87299,2.75082 v 70.59112 c 0,17.27165 -19.58248,20.89462 -36.01595,20.89462 -16.42722,0 -36.00996,-3.62297 -36.00996,-20.89462 v -71.42375 c 0,-1.51638 -1.287868,-2.74818 -2.873927,-2.74818 -1.585662,0 -2.872865,1.2318 -2.872865,2.74818"
     inkscape:connector-curvature="0" /><path
     id="path80"
     style="fill:#777777;fill-opacity:1;fill-rule:nonzero;stroke:none;stroke-width:0.99212468"
     d="m 92.033951,201.44667 c 0,7.04171 -4.11544,12.766 -9.19439,12.766 -5.07948,0 -9.196116,-5.72429 -9.196116,-12.766 0,-7.0549 4.116636,-22.98276 9.196116,-22.98276 5.07895,0 9.19439,15.92786 9.19439,22.98276"
     inkscape:connector-curvature="0" /><path
     id="path82"
     style="fill:#000000;fill-opacity:1;fill-rule:nonzero;stroke:none;stroke-width:0.99212468"
     d="m 74.602306,201.44667 c 0,-7.67146 4.361431,-22.06715 8.237255,-22.06715 3.87423,0 8.237122,14.39569 8.237122,22.06715 0,6.53714 -3.693057,11.85169 -8.237122,11.85169 -4.54101,0 -8.237255,-5.31455 -8.237255,-11.85169 z m -1.917589,0 c 0,7.54498 4.553894,13.68557 10.154844,13.68557 5.598826,0 10.150728,-6.14059 10.150728,-13.68557 0,-6.89154 -4.043981,-23.90234 -10.150728,-23.90234 -6.105286,0 -10.154844,17.0108 -10.154844,23.90234"
     inkscape:connector-curvature="0" /><path
     id="path86"
     style="fill:#777777;fill-opacity:1;fill-rule:nonzero;stroke:none;stroke-width:0.99212468"
     d="m 96.370544,208.22885 c 0,5.44103 -3.27187,9.85314 -7.311069,9.85314 -4.042917,0 -7.319436,-4.41211 -7.319436,-9.85314 0,-5.45684 3.276519,-17.74593 7.319436,-17.74593 4.039199,0 7.311069,12.28909 7.311069,17.74593"
     inkscape:connector-curvature="0" /><path
     id="path88"
     style="fill:#000000;fill-opacity:1;fill-rule:nonzero;stroke:none;stroke-width:0.99212468"
     d="m 82.697306,208.22885 c 0,-5.7032 3.43644,-16.82768 6.362169,-16.82768 2.926261,0 6.352207,11.12448 6.352207,16.82768 0,4.92591 -2.851082,8.9362 -6.352207,8.9362 -3.510024,0 -6.362169,-4.01029 -6.362169,-8.9362 z m -1.914933,0 c 0,5.93639 3.713379,10.77008 8.277102,10.77008 4.556949,0 8.268867,-4.83369 8.268867,-10.77008 0,-4.6453 -2.934097,-18.66287 -8.268867,-18.66287 -5.343138,0 -8.277102,14.01757 -8.277102,18.66287"
     inkscape:connector-curvature="0" /><g
     id="g92"
     transform="matrix(0.13282467,0,0,-0.1317441,8.1337521e-7,355.17886)"
     style="fill:#777777;fill-opacity:1"><g
       clip-path="url(#clipPath98)"
       id="g94"
       style="fill:#777777;fill-opacity:1"><path
         id="path106"
         style="fill:#777777;fill-opacity:1;fill-rule:nonzero;stroke:none"
         d="m 2045.81,1695.54 v -535.81 c 0,-132.14 -131.09,-179.468 -292.78,-179.468 v 0 c -161.7,0 -292.79,47.328 -292.79,179.468 v 542.13"
         inkscape:connector-curvature="0" /></g></g><path
     id="path108"
     style="fill:#000000;fill-opacity:1;fill-rule:nonzero;stroke:none;stroke-width:0.99212468"
     d="m 191.08158,130.96884 v 71.42243 c 0,17.0187 14.83252,26.39348 41.76406,26.39348 12.12158,0 21.84169,-1.89843 28.89335,-5.63983 8.4171,-4.46876 12.86805,-11.64354 12.86805,-20.75365 v -70.58981 c 0,-1.51769 -1.28707,-2.74819 -2.873,-2.74819 -1.58592,0 -2.87033,1.2305 -2.87033,2.74819 v 70.58981 c 0,7.1919 -3.24492,12.40634 -9.91537,15.94894 -6.10196,3.23431 -15.12608,4.94567 -26.1027,4.94567 -16.43042,0 -36.01408,-3.62823 -36.01408,-20.89461 v -71.42243 c 0,-1.52033 -1.28973,-2.75082 -2.87566,-2.75082 -1.58593,0 -2.87432,1.23049 -2.87432,2.75082"
     inkscape:connector-curvature="0" /><path
     id="path110"
     style="fill:#777777;fill-opacity:1;fill-rule:nonzero;stroke:none;stroke-width:0.99212468"
     d="m 211.00262,202.30563 c 0,7.04173 -4.11358,12.77523 -9.19147,12.77523 -5.08718,0 -9.19943,-5.7335 -9.19943,-12.77523 0,-7.05094 4.11225,-22.98012 9.19943,-22.98012 5.07789,0 9.19147,15.92918 9.19147,22.98012"
     inkscape:connector-curvature="0" /><path
     id="path112"
     style="fill:#000000;fill-opacity:1;fill-rule:nonzero;stroke:none;stroke-width:0.99212468"
     d="m 193.56673,202.30563 c 0,-3.60056 1.09048,-9.29586 2.64852,-13.8463 1.73336,-5.0682 3.87847,-8.2182 5.5959,-8.2182 3.87184,0 8.23513,14.39436 8.23513,22.0645 0,6.53978 -3.69385,11.85697 -8.23513,11.85697 -4.54658,0 -8.24442,-5.31719 -8.24442,-11.85697 z m 0.82749,-14.41676 c -1.61514,4.7125 -2.74283,10.64361 -2.74283,14.41676 0,7.54763 4.55722,13.69085 10.15976,13.69085 5.59723,0 10.14913,-6.14322 10.14913,-13.69085 0,-6.89153 -4.04451,-23.89574 -10.14913,-23.89574 -3.45078,0 -5.93726,5.15119 -7.41693,9.47898"
     inkscape:connector-curvature="0" /><path
     id="path116"
     style="fill:#777777;fill-opacity:1;fill-rule:nonzero;stroke:none;stroke-width:0.99212468"
     d="m 215.342,209.08651 c 0,5.44893 -3.27015,9.8505 -7.31332,9.8505 -4.0392,0 -7.31466,-4.40157 -7.31466,-9.8505 0,-5.45553 3.27546,-17.74331 7.31466,-17.74331 4.04317,0 7.31332,12.28778 7.31332,17.74331"
     inkscape:connector-curvature="0" /><path
     id="path118"
     style="fill:#000000;fill-opacity:1;fill-rule:nonzero;stroke:none;stroke-width:0.99212468"
     d="m 201.67302,209.08651 c 0,-5.70321 3.42952,-16.82504 6.35566,-16.82504 2.92214,0 6.35432,11.12183 6.35432,16.82504 0,4.92722 -2.85174,8.93883 -6.35432,8.93883 -3.50657,0 -6.35566,-4.01161 -6.35566,-8.93883 z m -1.91534,0 c 0,5.94297 3.70979,10.77008 8.271,10.77008 4.56119,0 8.27098,-4.82711 8.27098,-10.77008 0,-4.64398 -2.93542,-18.65892 -8.27098,-18.65892 -5.33956,0 -8.271,14.01494 -8.271,18.65892"
     inkscape:connector-curvature="0" /><g
     id="g122"
     transform="matrix(0.13282467,0,0,-0.1317441,8.1337521e-7,355.17886)"><g
       clip-path="url(#clipPath128)"
       id="g124"><path
         id="path136"
         style="fill:url(#linearGradient134);fill-opacity:1;fill-rule:nonzero;stroke:none"
         d="m 903.801,2433.88 c 114.029,-185.4 101.879,-342.02 -50.055,-424.12 -90.965,-49.18 -40.887,-114.04 -40.887,-114.04"
         inkscape:connector-curvature="0" /></g></g><path
     id="path138"
     style="fill:#080604;fill-opacity:1;fill-rule:nonzero;stroke:none;stroke-width:0.99212468"
     d="m 118.58229,32.163394 c -1.36717,0.77597 -1.8201,2.463612 -1.00709,3.769193 8.43131,13.589411 11.44843,25.896946 8.73017,35.58409 -1.93273,6.886261 -6.7528,12.434009 -14.3088,16.490407 -4.77651,2.558467 -7.62546,5.786201 -8.47276,9.588336 -1.15278,5.167 2.00646,9.30245 2.1418,9.47503 0.94226,1.21074 2.72038,1.45578 3.9951,0.56651 1.2718,-0.8906 1.54981,-2.60722 0.62787,-3.83244 -0.0139,-0.0237 -1.76511,-2.4017 -1.13366,-5.112992 0.50579,-2.168502 2.40691,-4.148616 5.64757,-5.887638 8.96474,-4.808663 14.70422,-11.486775 17.05456,-19.863063 3.12735,-11.152142 -0.0976,-24.920712 -9.33983,-39.815704 -0.80838,-1.306905 -2.57494,-1.73507 -3.93493,-0.961729"
     inkscape:connector-curvature="0" /><g
     id="g140"
     transform="matrix(0.13282467,0,0,-0.1317441,8.1337521e-7,355.17886)"
     style="fill:#777777;fill-opacity:1"><g
       clip-path="url(#clipPath146)"
       id="g142"
       style="fill:#777777;fill-opacity:1"><path
         id="path154"
         style="fill:#777777;fill-opacity:1;fill-rule:nonzero;stroke:none"
         d="m 1569.91,2565.32 c 0,0 -189.32,2.23 -881.043,-20.69 C -2.81641,2521.72 22.7109,2273.69 21.6367,1917.49 v -856.76 c 0,-72.468 62.793,-101.699 140.2733,-101.699 77.469,0 140.356,29.231 140.356,101.699 0,0 17.863,244.81 33.285,393.73 34.5,541.01 687.579,-88.96 1162.329,-59.56 431.41,26.74 771.15,175.65 771.15,529.54 0,353.97 -222.65,640.88 -699.12,640.88"
         inkscape:connector-curvature="0" /></g></g><path
     id="path156"
     style="fill:#000000;fill-opacity:1;fill-rule:nonzero;stroke:none;stroke-width:0.99212468"
     d="M 5.7467399,215.43394 V 102.56085 c 0,0.0106 0.00726,-4.973335 0.00726,-4.973335 C 5.7695695,54.180463 5.7820149,25.50373 91.595095,22.684409 182.28194,19.706986 208.23455,19.957306 208.48825,19.95862 h 0.0346 c 28.89336,0 52.43785,8.260356 68.08726,23.885204 14.32779,14.299505 21.90013,34.286404 21.90013,57.801416 0,50.3236 -54.23896,64.22261 -99.73804,67.02086 -23.94697,1.46762 -52.19346,-10.27604 -77.11509,-20.64035 C 93.721382,136.41119 69.596039,126.3815 54.742521,135.08847 46.896966,139.68635 42.63263,148.94532 41.70392,163.3937 c -2.018935,19.32686 -4.399419,51.51984 -4.4216,51.84789 -0.0068,9.45659 -9.887204,10.84241 -15.77665,10.84241 -5.883734,0 -15.7589036,-1.38582 -15.7589036,-10.65006 z M 91.401573,17.193308 C 0.03632013,20.193122 0.02075467,52.654866 0.00726467,97.583563 L 8.1337521e-7,102.55295 v 112.88099 c 0,10.1103 8.04056808662479,16.153 21.50564218662479,16.153 13.477056,0 21.516535,-6.0427 21.516535,-16.153 0.01661,-0.13307 2.385664,-32.24833 4.407653,-51.60022 0.814083,-12.6303 4.186502,-20.46249 10.313571,-24.05779 12.308597,-7.21035 36.255956,2.74819 61.622938,13.2943 25.51882,10.61066 54.44006,22.63891 79.77371,21.08169 67.78574,-4.1697 105.11612,-29.91909 105.11612,-72.50668 0,-24.95761 -8.12622,-46.259318 -23.49669,-61.607503 -16.75849,-16.730185 -41.73883,-25.575484 -72.2367,-25.575484 h 0.0346 c -0.25104,-0.003 -26.2674,-0.262168 -117.155737,2.731055"
     inkscape:connector-curvature="0" /><g
     id="g158"
     transform="matrix(0.13282467,0,0,-0.1317441,8.1337521e-7,355.17886)"
     style="fill:#777777;fill-opacity:1"><g
       clip-path="url(#clipPath164)"
       id="g160"
       style="fill:#777777;fill-opacity:1"><path
         id="path172"
         style="fill:#777777;fill-opacity:1;fill-rule:nonzero;stroke:none"
         d="m 40.5078,1894 c 0.7383,-80.46 -10.5781,-783.24 33.8086,-825.44 -13.9453,31.12 16.5625,711.97 16.1719,754.76 l -0.4102,25.04 c 0,11.92 0,23.67 0,35.37 -17.1093,6.32 -33.7148,14.09 -49.7461,22.98 L 40.5078,1894"
         inkscape:connector-curvature="0" /></g></g><g
     id="g174"
     transform="matrix(0.13282467,0,0,-0.1317441,8.1337521e-7,355.17886)"
     style="fill:#777777;fill-opacity:1"><g
       clip-path="url(#clipPath180)"
       id="g176"
       style="fill:#777777;fill-opacity:1"><path
         id="path188"
         style="fill:#777777;fill-opacity:1;fill-rule:nonzero;stroke:none"
         d="m 1569.65,2541.75 c 0,0 -185.21,2.18 -862.005,-20.24 C 30.8789,2499.09 41.2656,2249.73 41.2656,1914.49 l 0.1406,-12.4 c 15.6641,-8.89 31.8985,-16.66 48.5586,-22.99 0.1563,317.27 13.6482,550.06 666.4062,571.68 676.769,22.42 862.039,20.24 862.039,20.24 258.82,0 437,-87.38 547.94,-223.71 -102.14,176.42 -295.52,294.44 -596.7,294.44"
         inkscape:connector-curvature="0" /></g></g><g
     id="g190"
     transform="matrix(0.13282467,0,0,-0.1317441,8.1337521e-7,355.17886)"
     style="fill:#777777;fill-opacity:1"><g
       clip-path="url(#clipPath196)"
       id="g192"
       style="fill:#777777;fill-opacity:1"><path
         id="path204"
         style="fill:#777777;fill-opacity:1;fill-rule:nonzero;stroke:none"
         d="m 1333.93,1456.26 v -381.58 c 0,-132.121 -131.13,-179.571 -292.82,-179.571 v 0 c -161.696,0 -292.755,47.45 -292.755,179.571 v 580.79"
         inkscape:connector-curvature="0" /></g></g><path
     id="path206"
     style="fill:#000000;fill-opacity:1;fill-rule:nonzero;stroke:none;stroke-width:0.99212468"
     d="m 96.526746,137.08044 v 76.51567 c 0,17.02792 14.833724,26.40389 41.758344,26.40389 26.93286,0 41.76805,-9.37597 41.76805,-26.40389 v -50.27093 c 0,-1.51769 -1.28972,-2.74949 -2.87432,-2.74949 -1.5846,0 -2.873,1.2318 -2.873,2.74949 v 50.27093 c 0,17.2806 -19.58632,20.90673 -36.02073,20.90673 -16.42629,0 -36.01169,-3.62613 -36.01169,-20.90673 v -76.51567 c 0,-1.51769 -1.2872,-2.74818 -2.873391,-2.74818 -1.586591,0 -2.873263,1.23049 -2.873263,2.74818"
     inkscape:connector-curvature="0" /><path
     id="path208"
     style="fill:#777777;fill-opacity:1;fill-rule:nonzero;stroke:none;stroke-width:0.99212468"
     d="m 123.86259,218.47195 c 0,6.54781 -5.49084,11.85829 -12.27113,11.85829 -6.77978,0 -12.272873,-5.31048 -12.272873,-11.85829 0,-6.55558 5.493093,-21.35308 12.272873,-21.35308 6.78029,0 12.27113,14.7975 12.27113,21.35308"
     inkscape:connector-curvature="0" /><path
     id="path210"
     style="fill:#000000;fill-opacity:1;fill-rule:nonzero;stroke:none;stroke-width:0.99212468"
     d="m 100.27692,218.47195 c 0,-6.383 5.47078,-20.44009 11.31454,-20.44009 5.84428,0 11.31493,14.05709 11.31493,20.44009 0,6.03625 -5.07218,10.9428 -11.31493,10.9428 -6.23507,0 -11.31454,-4.90655 -11.31454,-10.9428 z m -1.917194,0 c 0,7.04291 5.935674,12.77536 13.231734,12.77536 7.29698,0 13.23159,-5.73245 13.23159,-12.77536 0,-6.64122 -5.58382,-22.27529 -13.23159,-22.27529 -7.64114,0 -13.231734,15.63407 -13.231734,22.27529"
     inkscape:connector-curvature="0" /><path
     id="path214"
     style="fill:#777777;fill-opacity:1;fill-rule:nonzero;stroke:none;stroke-width:0.99212468"
     d="m 133.86071,219.39943 c 0,8.63609 -5.68755,15.66333 -12.70442,15.66333 -7.02722,0 -12.71477,-7.02724 -12.71477,-15.66333 0,-8.64768 5.68755,-28.17611 12.71477,-28.17611 7.01687,0 12.70442,19.52843 12.70442,28.17611"
     inkscape:connector-curvature="0" /><path
     id="path216"
     style="fill:#000000;fill-opacity:1;fill-rule:nonzero;stroke:none;stroke-width:0.99212468"
     d="m 109.39826,219.39943 c 0,-8.51725 5.68755,-27.26181 11.75803,-27.26181 6.06903,0 11.74808,18.74456 11.74808,27.26181 0,8.12862 -5.26915,14.74467 -11.74808,14.74467 -6.48091,0 -11.75803,-6.61605 -11.75803,-14.74467 z m -1.91507,0 c 0,9.14041 6.13477,16.57987 13.6731,16.57987 7.53528,0 13.66341,-7.43946 13.66341,-16.57987 0,-8.68061 -5.77017,-29.09041 -13.66341,-29.09041 -7.89629,0 -13.6731,20.4098 -13.6731,29.09041"
     inkscape:connector-curvature="0" /><path
     id="path220"
     style="fill:#777777;fill-opacity:1;fill-rule:nonzero;stroke:none;stroke-width:0.99212468"
     d="m 140.52984,224.05026 c 0,6.11372 -4.09367,11.06901 -9.14552,11.06901 -5.04986,0 -9.14418,-4.95529 -9.14418,-11.06901 0,-6.14349 4.09432,-19.96081 9.14418,-19.96081 5.05185,0 9.14552,13.81732 9.14552,19.96081"
     inkscape:connector-curvature="0" /><path
     id="path222"
     style="fill:#000000;fill-opacity:1;fill-rule:nonzero;stroke:none;stroke-width:0.99212468"
     d="m 123.19794,224.05026 c 0,-6.62172 4.3423,-19.04519 8.18638,-19.04519 3.85378,0 8.18784,12.42347 8.18784,19.04519 0,5.60163 -3.66994,10.15049 -8.18784,10.15049 -4.51285,0 -8.18638,-4.54886 -8.18638,-10.15049 z m -1.91599,0 c 0,6.60934 4.53569,11.98556 10.10237,11.98556 5.57651,0 10.10185,-5.37622 10.10185,-11.98556 0,-6.01965 -4.02458,-20.87643 -10.10185,-20.87643 -6.0746,0 -10.10237,14.85678 -10.10237,20.87643"
     inkscape:connector-curvature="0" /><g
     id="g226"
     transform="matrix(0.13282467,0,0,-0.1317441,8.1337521e-7,355.17886)"
     style="fill:#777777;fill-opacity:1"><g
       clip-path="url(#clipPath232)"
       id="g228"
       style="fill:#777777;fill-opacity:1"><path
         id="path240"
         style="fill:#777777;fill-opacity:1;fill-rule:nonzero;stroke:none"
         d="M 2229.92,1718.48 V 1089.6 c 0,-132.112 -131.12,-179.53 -292.81,-179.53 v 0 c -161.71,0 -292.75,47.418 -292.75,179.53 v 361.33"
         inkscape:connector-curvature="0" /></g></g><path
     id="path242"
     style="fill:#000000;fill-opacity:1;fill-rule:nonzero;stroke:none;stroke-width:0.99212468"
     d="m 293.31141,128.77925 v 82.85123 c 0,17.27837 -19.58632,20.90239 -36.0154,20.90239 -16.4251,0 -36.0101,-3.62402 -36.0101,-20.90239 v -47.6031 c 0,-1.51769 -1.28707,-2.75081 -2.87433,-2.75081 -1.58593,0 -2.873,1.23312 -2.873,2.75081 v 47.6031 c 0,17.02516 14.82988,26.40416 41.75743,26.40416 26.9302,0 41.76272,-9.379 41.76272,-26.40416 v -82.85123 c 0,-1.51901 -1.28441,-2.74686 -2.87033,-2.74686 -1.58859,0 -2.87699,1.22785 -2.87699,2.74686"
     inkscape:connector-curvature="0" /><path
     id="path244"
     style="fill:#777777;fill-opacity:1;fill-rule:nonzero;stroke:none;stroke-width:0.99212468"
     d="m 242.87523,216.50502 c 0,6.54372 -5.49363,11.85314 -12.273,11.85314 -6.77938,0 -12.27167,-5.30942 -12.27167,-11.85314 0,-6.55559 5.49229,-21.35573 12.27167,-21.35573 6.77937,0 12.273,14.80014 12.273,21.35573"
     inkscape:connector-curvature="0" /><path
     id="path246"
     style="fill:#000000;fill-opacity:1;fill-rule:nonzero;stroke:none;stroke-width:0.99212468"
     d="m 219.28955,216.50502 c 0,-6.38564 5.46839,-20.43615 11.31268,-20.43615 5.84694,0 11.31666,14.05051 11.31666,20.43615 0,6.03124 -5.07789,10.94121 -11.31666,10.94121 -6.23745,0 -11.31268,-4.90997 -11.31268,-10.94121 z m -1.91666,0 c 0,7.0429 5.93328,12.77377 13.22934,12.77377 7.29606,0 13.23066,-5.73087 13.23066,-12.77377 0,-6.64254 -5.58528,-22.27134 -13.23066,-22.27134 -7.64273,0 -13.22934,15.6288 -13.22934,22.27134"
     inkscape:connector-curvature="0" /><path
     id="path250"
     style="fill:#777777;fill-opacity:1;fill-rule:nonzero;stroke:none;stroke-width:0.99212468"
     d="m 252.87427,217.42854 c 0,8.6411 -5.68623,15.66675 -12.70866,15.66675 -7.02776,0 -12.71398,-7.02565 -12.71398,-15.66675 0,-8.64769 5.68622,-28.17084 12.71398,-28.17084 7.02243,0 12.70866,19.52315 12.70866,28.17084"
     inkscape:connector-curvature="0" /><path
     id="path252"
     style="fill:#000000;fill-opacity:1;fill-rule:nonzero;stroke:none;stroke-width:0.99212468"
     d="m 228.40929,217.42854 c 0,-8.51726 5.68357,-27.25654 11.75632,-27.25654 6.07141,0 11.74966,18.73928 11.74966,27.25654 0,8.13111 -5.27181,14.75021 -11.74966,14.75021 -6.48451,0 -11.75632,-6.6191 -11.75632,-14.75021 z m -1.91533,0 c 0,9.14291 6.13252,16.58026 13.67165,16.58026 7.53514,0 13.665,-7.43735 13.665,-16.58026 0,-8.67667 -5.76858,-29.09173 -13.665,-29.09173 -7.90042,0 -13.67165,20.41506 -13.67165,29.09173"
     inkscape:connector-curvature="0" /><path
     id="path256"
     style="fill:#777777;fill-opacity:1;fill-rule:nonzero;stroke:none;stroke-width:0.99212468"
     d="m 259.53941,222.08042 c 0,6.11662 -4.09232,11.07204 -9.14232,11.07204 -5.05,0 -9.14498,-4.95542 -9.14498,-11.07204 0,-6.14059 4.09498,-19.96186 9.14498,-19.96186 5.05,0 9.14232,13.82127 9.14232,19.96186"
     inkscape:connector-curvature="0" /><path
     id="path258"
     style="fill:#000000;fill-opacity:1;fill-rule:nonzero;stroke:none;stroke-width:0.99212468"
     d="m 242.20844,222.08042 c 0,-6.62014 4.33806,-19.04097 8.18865,-19.04097 3.84925,0 8.18731,12.42083 8.18731,19.04097 0,5.60044 -3.67659,10.15497 -8.18731,10.15497 -4.51338,0 -8.18865,-4.55453 -8.18865,-10.15497 z m -1.91532,0 c 0,6.61224 4.53065,11.98595 10.10397,11.98595 5.57066,0 10.09999,-5.37371 10.09999,-11.98595 0,-6.01675 -4.02459,-20.87617 -10.09999,-20.87617 -6.07806,0 -10.10397,14.85942 -10.10397,20.87617"
     inkscape:connector-curvature="0" /><path
     id="path262"
     style="fill:#000000;fill-opacity:1;fill-rule:nonzero;stroke:none;stroke-width:0.99212468"
     d="m 27.237825,56.529467 c -1.01478,1.367504 -0.656818,3.247486 0.805847,4.203948 1.456954,0.955148 3.465397,0.613934 4.479115,-0.749617 5.778404,-7.787401 18.775032,-9.933513 24.954036,-7.721526 1.231152,0.442661 2.787192,0.250311 3.467388,-0.438708 0.679664,-0.679799 0.235099,-1.5941 -0.998841,-2.035446 -8.460268,-3.032746 -25.057109,-3.582119 -32.707545,6.741349"
     inkscape:connector-curvature="0" /><path
     id="path264"
     style="fill:#000000;fill-opacity:1;fill-rule:nonzero;stroke:none;stroke-width:0.99212468"
     d="m 52.28205,90.760539 c -5.336365,1.115869 -10.041146,-1.845735 -10.504041,-6.612237 -0.4613,-4.774406 3.494485,-9.544861 8.83231,-10.671273 5.342075,-1.119831 10.045396,1.833878 10.511877,6.610913 0.458113,4.773092 -3.496476,9.542232 -8.840146,10.672597 z M 63.316858,79.451618 c -0.534885,-5.562233 -6.091206,-8.984945 -12.423224,-7.663555 -6.324182,1.327981 -11.022323,6.898128 -10.491025,12.452457 0.532362,5.5517 6.090676,8.98363 12.415388,7.667507 6.331488,-1.331933 11.031223,-6.900757 10.498861,-12.456409"
     inkscape:connector-curvature="0" /><path
     id="path268"
     style="fill:#000000;fill-opacity:1;fill-rule:nonzero;stroke:none;stroke-width:0.99212468"
     d="m 60.099579,80.514793 c -1.265553,-3.19743 -4.626017,-5.051069 -7.476037,-4.160472 -1.527484,0.469002 -2.574009,1.640214 -3.061741,3.103888 l 3.983677,1.955085 -3.659984,2.620391 c 1.356273,3.015622 4.564388,4.74674 7.332852,3.886448 2.861442,-0.90113 4.145591,-4.209225 2.881233,-7.40534"
     inkscape:connector-curvature="0" /><path
     id="path272"
     style="fill:#000000;fill-opacity:1;fill-rule:nonzero;stroke:none;stroke-width:0.99212468"
     d="m 45.577592,74.325455 c -4.995005,3.82322 -6.573891,9.376235 -3.199215,12.523598 -0.292613,-0.123836 0.344414,0.685066 0.07464,0.534878 -5.313518,-2.922081 -6.201185,-11.598745 -1.309518,-16.703832 4.198986,-4.387079 16.799664,-7.639841 16.706289,-5.948247 -0.519876,1.940591 -4.208815,4.404202 -8.789274,7.081249 -1.474488,0.831302 -2.537616,1.790403 -3.482929,2.512354"
     inkscape:connector-curvature="0" /><path
     id="path276"
     style="fill:#a60000;fill-opacity:1;stroke:#000000;stroke-width:5.29133129;stroke-linecap:butt;stroke-linejoin:miter;stroke-miterlimit:4;stroke-dasharray:none;stroke-opacity:1"
     d="m 127.64916,148.21407 c -0.25728,1.30163 0.63039,2.37008 1.96952,2.37008 h 7.69547 c 1.34152,0 2.64453,-1.06845 2.90354,-2.37008 l 2.04949,-10.4763 c 0.25768,-1.30426 1.55804,-2.37007 2.90089,-2.37007 h 8.32811 c 4.74981,0 8.65751,-0.49536 11.72177,-1.48739 3.07091,-0.98676 5.85492,-2.64937 8.36929,-4.97993 2.10128,-1.91819 3.80941,-4.03532 5.11109,-6.35534 1.30168,-2.31211 2.23145,-4.86794 2.77604,-7.66355 1.3309,-6.78219 0.0212,-11.82798 -3.0045,-15.858037 -3.80011,-5.045803 -13.49764,-5.313237 -13.49764,-5.313237 -1.32559,-0.197616 -3.50392,-0.366252 -4.84412,-0.366252 h -19.29543 c -1.33888,0 -2.64189,1.069766 -2.90089,2.375347 z m 30.15187,-45.83641 c 4.7777,0 7.9562,0.87609 9.54876,2.62434 1.58858,1.74824 1.96979,4.75201 1.13963,9.0034 -0.87265,4.43055 -2.54625,7.59636 -5.02475,9.48952 -2.47851,1.89184 -8.89659,2.57692 -8.89659,2.57692 -1.33489,0.14491 -3.52119,0.26217 -4.85874,0.26217 h -2.77072 c -1.33887,0 -2.23013,-1.06844 -1.97244,-2.3714 l 3.76425,-19.21093 c 0.25503,-1.30426 1.56069,-2.37402 2.89823,-2.37402 z"
     inkscape:connector-curvature="0" /><path
     id="path280"
     style="fill:none;stroke:#000000;stroke-width:5.29133129;stroke-linecap:butt;stroke-linejoin:miter;stroke-miterlimit:4;stroke-dasharray:none;stroke-opacity:1"
     d="m 193.59727,80.500228 c 0.25503,-1.301628 1.55804,-2.368756 2.89691,-2.368756 h 7.5989 c 1.34153,0 2.22747,1.067128 1.96978,2.368756 l -2.0508,10.476295 c -0.25636,1.305581 0.63622,2.367441 1.97245,2.367441 h 6.23345 c 1.33888,0 3.5265,0.114618 4.8574,0.250311 0,0 9.09052,0.105399 12.04056,3.38056 2.4028,2.666495 3.4468,6.339525 2.38553,11.755525 l -4.74981,24.26595 c -0.25369,1.30427 -1.56069,2.37139 -2.90089,2.37139 h -7.79416 c -1.34019,0 -2.22879,-1.06712 -1.97244,-2.37139 l 4.03521,-20.58502 c 0.25503,-1.30295 0.54193,-3.45434 0.64022,-4.78232 0,0 0.17932,-2.43594 -0.80227,-3.48067 -0.97758,-1.04869 -3.06559,-1.57039 -6.25604,-1.57039 h -7.5285 c -1.34153,0 -2.64055,1.06449 -2.90089,2.36876 l -5.48964,28.04964 c -0.25635,1.30427 -1.55936,2.37139 -2.89956,2.37139 h -7.60023 c -1.3402,0 -2.22614,-1.06712 -1.97112,-2.37139 z"
     inkscape:connector-curvature="0" /><path
     id="path284"
     style="fill:#7777b9;fill-opacity:1;stroke:#000000;stroke-width:5.29133129;stroke-linecap:butt;stroke-linejoin:miter;stroke-miterlimit:4;stroke-dasharray:none;stroke-opacity:1"
     d="m 232.14167,148.21407 c -0.25769,1.30163 0.63091,2.37008 1.97244,2.37008 h 7.69454 c 1.33621,0 2.64586,-1.06845 2.89956,-2.37008 l 2.05081,-10.4763 c 0.25636,-1.30426 1.56202,-2.37007 2.89824,-2.37007 h 8.33209 c 4.74848,0 8.65352,-0.49536 11.72576,-1.48739 3.06161,-0.98676 5.85093,-2.64937 8.36132,-4.97993 2.10792,-1.91819 3.80807,-4.03532 5.11374,-6.35534 1.30301,-2.31211 2.2288,-4.86794 2.77737,-7.66355 1.32958,-6.78219 0.12618,-11.90571 -3.00716,-15.858037 -3.88777,-4.906147 -13.49896,-5.313237 -13.49896,-5.313237 -1.3256,-0.197616 -3.50525,-0.366252 -4.84412,-0.366252 h -19.29544 c -1.33755,0 -2.64454,1.069766 -2.89824,2.375347 z m 30.15518,-45.83641 c 4.77239,0 7.95355,0.87609 9.54877,2.62434 1.5846,1.74824 1.96447,4.75201 1.13299,9.0034 -0.87132,4.43055 -2.53828,7.59636 -5.02077,9.48952 -2.4825,1.89184 -8.90058,2.57692 -8.90058,2.57692 -1.32958,0.14491 -3.51454,0.26217 -4.8574,0.26217 h -2.77338 c -1.34153,0 -2.22348,-1.06844 -1.96979,-2.3714 l 3.76159,-19.21093 c 0.25768,-1.30426 1.56202,-2.37402 2.90089,-2.37402 z"
     inkscape:connector-curvature="0" /><path
     id="path286"
     style="fill:#777777;fill-opacity:1;fill-rule:nonzero;stroke:none;stroke-width:0.99212468"
     d="m 127.64916,148.21407 c -0.25728,1.30163 0.63039,2.37008 1.96952,2.37008 h 7.69547 c 1.34152,0 2.64453,-1.06845 2.90354,-2.37008 l 2.04949,-10.4763 c 0.25768,-1.30426 1.55804,-2.37007 2.90089,-2.37007 h 8.32811 c 4.74981,0 8.65751,-0.49536 11.72177,-1.48739 3.07091,-0.98676 5.85492,-2.64937 8.36929,-4.97993 2.10128,-1.91819 3.80941,-4.03532 5.11109,-6.35534 1.30168,-2.31211 2.23145,-4.86794 2.77604,-7.66355 1.3309,-6.78219 0.0212,-11.82798 -3.0045,-15.858037 -3.80011,-5.045803 -13.49764,-5.313237 -13.49764,-5.313237 -1.32559,-0.197616 -3.50392,-0.366252 -4.84412,-0.366252 h -19.29543 c -1.33888,0 -2.64189,1.069766 -2.90089,2.375347 z m 30.15187,-45.83641 c 4.7777,0 7.9562,0.87609 9.54876,2.62434 1.58858,1.74824 1.96979,4.75201 1.13963,9.0034 -0.87265,4.43055 -2.54625,7.59636 -5.02475,9.48952 -2.47851,1.89184 -8.89659,2.57692 -8.89659,2.57692 -1.33489,0.14491 -3.52119,0.26217 -4.85874,0.26217 h -2.77072 c -1.33887,0 -2.23013,-1.06844 -1.97244,-2.3714 l 3.76425,-19.21093 c 0.25503,-1.30426 1.56069,-2.37402 2.89823,-2.37402 h 6.17237"
     inkscape:connector-curvature="0" /><path
     id="path288"
     style="fill:#777777;fill-opacity:1;fill-rule:nonzero;stroke:none;stroke-width:0.99212468"
     d="m 193.59727,80.500228 c 0.25503,-1.301628 1.55804,-2.368756 2.89691,-2.368756 h 7.5989 c 1.34153,0 2.22747,1.067128 1.96978,2.368756 l -2.0508,10.476295 c -0.25636,1.305581 0.63622,2.367441 1.97245,2.367441 h 6.23345 c 1.33888,0 3.5265,0.114618 4.8574,0.250311 0,0 9.09052,0.105399 12.04056,3.38056 2.4028,2.666495 3.4468,6.339525 2.38553,11.755525 l -4.74981,24.26595 c -0.25369,1.30427 -1.56069,2.37139 -2.90089,2.37139 h -7.79416 c -1.34019,0 -2.22879,-1.06712 -1.97244,-2.37139 l 4.03521,-20.58502 c 0.25503,-1.30295 0.54193,-3.45434 0.64022,-4.78232 0,0 0.17932,-2.43594 -0.80227,-3.48067 -0.97758,-1.04869 -3.06559,-1.57039 -6.25604,-1.57039 h -7.5285 c -1.34153,0 -2.64055,1.06449 -2.90089,2.36876 l -5.48964,28.04964 c -0.25635,1.30427 -1.55936,2.37139 -2.89956,2.37139 h -7.60023 c -1.3402,0 -2.22614,-1.06712 -1.97112,-2.37139 l 10.28594,-52.496082"
     inkscape:connector-curvature="0" /><path
     id="path290"
     style="fill:#777777;fill-opacity:1;fill-rule:nonzero;stroke:none;stroke-width:0.99212468"
     d="m 232.14167,148.21407 c -0.25769,1.30163 0.63091,2.37008 1.97244,2.37008 h 7.69454 c 1.33621,0 2.64586,-1.06845 2.89956,-2.37008 l 2.05081,-10.4763 c 0.25636,-1.30426 1.56202,-2.37007 2.89824,-2.37007 h 8.33209 c 4.74848,0 8.65352,-0.49536 11.72576,-1.48739 3.06161,-0.98676 5.85093,-2.64937 8.36132,-4.97993 2.10792,-1.91819 3.80807,-4.03532 5.11374,-6.35534 1.30301,-2.31211 2.2288,-4.86794 2.77737,-7.66355 1.32958,-6.78219 0.12618,-11.90571 -3.00716,-15.858037 -3.88777,-4.906147 -13.49896,-5.313237 -13.49896,-5.313237 -1.3256,-0.197616 -3.50525,-0.366252 -4.84412,-0.366252 h -19.29544 c -1.33755,0 -2.64454,1.069766 -2.89824,2.375347 z m 30.15518,-45.83641 c 4.77239,0 7.95355,0.87609 9.54877,2.62434 1.5846,1.74824 1.96447,4.75201 1.13299,9.0034 -0.87132,4.43055 -2.53828,7.59636 -5.02077,9.48952 -2.4825,1.89184 -8.90058,2.57692 -8.90058,2.57692 -1.32958,0.14491 -3.51454,0.26217 -4.8574,0.26217 h -2.77338 c -1.34153,0 -2.22348,-1.06844 -1.96979,-2.3714 l 3.76159,-19.21093 c 0.25768,-1.30426 1.56202,-2.37402 2.90089,-2.37402 h 6.17768"
     inkscape:connector-curvature="0" /><g
     id="g292"
     transform="matrix(0.13282467,0,0,-0.1317441,8.1337521e-7,355.17886)"
     style="fill:#777777;fill-opacity:1"><g
       clip-path="url(#clipPath298)"
       id="g294"
       style="fill:#777777;fill-opacity:1"><path
         id="path306"
         style="fill:#777777;fill-opacity:1;fill-rule:nonzero;stroke:none"
         d="m 571.879,2500.55 c 0,0 171.527,117.93 279.867,158.35 34.531,12.89 283.674,78.71 324.064,-351.49 22.08,-235.55 -17.68,-398.24 -210.83,-427.71 -115.589,-17.66 -97.691,-103.81 -97.691,-103.81"
         inkscape:connector-curvature="0" /></g></g><path
     id="path308"
     style="fill:#000000;fill-opacity:1;fill-rule:nonzero;stroke:none;stroke-width:0.99212468"
     d="M 112.09314,2.3207158 C 97.535284,7.7103706 75.235349,22.863578 74.290434,23.507807 c -1.289727,0.880054 -1.591771,2.59799 -0.669303,3.832429 0.919412,1.235763 2.716264,1.522969 4.007055,0.6416 0.224739,-0.148874 22.656034,-15.394299 36.536214,-20.5349569 0.4342,-0.1580929 10.64975,-3.8258489 20.45473,1.9985614 10.20758,6.0668165 16.67083,20.5850135 18.70039,41.9947485 3.23162,34.216577 -4.42306,50.178691 -25.59412,53.386671 -6.00194,0.90639 -10.37068,3.19084 -12.99025,6.79667 -3.4395,4.7204 -2.4028,9.91506 -2.35406,10.13508 0.31188,1.47684 1.80708,2.42935 3.35542,2.14611 1.55034,-0.28194 2.56777,-1.7219 2.28339,-3.20666 -0.007,-0.0264 -0.57845,-3.22509 1.47356,-5.99172 1.70028,-2.29102 4.7708,-3.79028 9.12957,-4.45294 31.47587,-4.76388 32.79216,-34.199456 30.42123,-59.30989 C 156.81413,27.41533 149.61238,11.881386 137.65285,4.7764326 125.64589,-2.3575108 113.44781,1.8200948 112.09314,2.3207158"
     inkscape:connector-curvature="0" /><g
     id="g310"
     transform="matrix(0.13282467,0,0,-0.1317441,8.1337521e-7,355.17886)"
     style="fill:#777777;fill-opacity:1"><g
       clip-path="url(#clipPath316)"
       id="g312"
       style="fill:#777777;fill-opacity:1"><path
         id="path324"
         style="fill:#777777;fill-opacity:1;fill-rule:nonzero;stroke:none"
         d="m 747.344,2531.75 c 194.211,121.45 302.026,59.35 302.026,59.35 -84.444,77.21 -179.436,51.62 -200.444,43.74 -107.969,-40.42 -316.485,-189.8 -316.485,-189.8 0,0 -28.195,-50.01 27.989,-39.16 0,0 122.211,85.38 186.914,125.87"
         inkscape:connector-curvature="0" /></g></g><path
     id="path326"
     style="fill:#000000;fill-opacity:1;fill-rule:nonzero;stroke:none;stroke-width:0.99212468"
     d="m 89.957105,97.139589 c -0.224209,12.989961 -4.560137,24.819261 -11.323304,30.853151 -3.068515,2.7416 -6.491275,4.09856 -9.907393,3.93256 -1.05383,-0.0566 -1.951858,0.71932 -2.012559,1.7298 -0.05034,1.01443 0.760023,1.8734 1.817441,1.9261 4.475526,0.22397 8.870695,-1.4729 12.717962,-4.90747 7.495827,-6.6926 12.299299,-19.5192 12.537985,-33.480133 0.02072,-1.006518 -0.820857,-1.843097 -1.880399,-1.858906 -1.05941,-0.01453 -1.930607,0.793103 -1.949733,1.804898"
     inkscape:connector-curvature="0" /><path
     id="path328"
     style="fill:#000000;fill-opacity:1;fill-rule:nonzero;stroke:none;stroke-width:0.99212468"
     d="m 98.254928,87.863486 c -1.442875,3.281742 -3.964418,5.372521 -6.924019,5.72164 -2.885216,0.337271 -5.81679,-1.001252 -7.844358,-3.584757 -0.631449,-0.807588 -1.836701,-0.973586 -2.681996,-0.364928 -0.845164,0.606019 -1.017969,1.754831 -0.38134,2.562419 2.861442,3.650633 7.11648,5.527987 11.377894,5.027356 4.359838,-0.521707 7.995915,-3.416122 9.987751,-7.94417 0.4083,-0.934063 -0.0539,-1.999876 -1.02528,-2.396422 -0.977454,-0.39128 -2.095568,0.04743 -2.508652,0.978862"
     inkscape:connector-curvature="0" /><text
     xml:space="preserve"
     style="font-style:normal;font-weight:normal;font-size:26.5632267px;line-height:1.25;font-family:sans-serif;letter-spacing:0px;word-spacing:0px;fill:#000000;fill-opacity:1;stroke:none;stroke-width:0.66408068"
     x="175.70439"
     y="74.88726"
     id="text1089"
     transform="skewX(-13.64753)"><tspan
       sodipodi:role="line"
       id="tspan1087"
       x="175.70439"
       y="74.88726"
       style="font-style:normal;font-variant:normal;font-weight:normal;font-stretch:normal;font-family:Manjari;-inkscape-font-specification:Manjari;stroke-width:0.66408068">Aberdeen</tspan></text>
</svg>