<?xml version="1.0" encoding="UTF-8" standalone="no"?>
<svg
   xmlns:dc="http://purl.org/dc/elements/1.1/"
   xmlns:cc="http://creativecommons.org/ns#"
   xmlns:rdf="http://www.w3.org/1999/02/22-rdf-syntax-ns#"
   xmlns:svg="http://www.w3.org/2000/svg"
   xmlns="http://www.w3.org/2000/svg"
   xmlns:sodipodi="http://sodipodi.sourceforge.net/DTD/sodipodi-0.dtd"
   xmlns:inkscape="http://www.inkscape.org/namespaces/inkscape"
   width="100%"
   height="100%"
   viewBox="0 0 381 79"
   version="1.1"
   xml:space="preserve"
   style="fill-rule:evenodd;clip-rule:evenodd;stroke-linejoin:round;stroke-miterlimit:1.41421;"
   id="svg26"
   sodipodi:docname="Joomla!-Logo_key_fob.svg"
   inkscape:version="0.92.4 (5da689c313, 2019-01-14)"><metadata
   id="metadata32"><rdf:RDF><cc:Work
       rdf:about=""><dc:format>image/svg+xml</dc:format><dc:type
         rdf:resource="http://purl.org/dc/dcmitype/StillImage" /></cc:Work></rdf:RDF></metadata><defs
   id="defs30">
        
        
        
        
        
        
        
        
        
    
        
        
        
        
    </defs><sodipodi:namedview
   pagecolor="#ffffff"
   bordercolor="#666666"
   borderopacity="1"
   objecttolerance="10"
   gridtolerance="10"
   guidetolerance="10"
   inkscape:pageopacity="0"
   inkscape:pageshadow="2"
   inkscape:window-width="3840"
   inkscape:window-height="2123"
   id="namedview28"
   showgrid="false"
   inkscape:zoom="8.648294"
   inkscape:cx="190.38437"
   inkscape:cy="39.5"
   inkscape:window-x="0"
   inkscape:window-y="1050"
   inkscape:window-maximized="1"
   inkscape:current-layer="layer2" />
    
    <g
   inkscape:groupmode="layer"
   id="layer2"
   inkscape:label="Layer 2"><rect
     style="clip-rule:evenodd;fill:#777777;fill-opacity:1;fill-rule:evenodd;stroke:#777777;stroke-width:21.22167969;stroke-linejoin:round;stroke-miterlimit:1.41420996;stroke-dasharray:none;stroke-opacity:1"
     id="rect4581"
     width="278.72775"
     height="34.924519"
     x="60.04388"
     y="18.549681" /></g><g
   inkscape:groupmode="layer"
   id="layer3"
   inkscape:label="Layer 3"><rect
     style="clip-rule:evenodd;fill:#ffffff;fill-opacity:1;fill-rule:evenodd;stroke:none;stroke-width:40.17923737;stroke-linejoin:round;stroke-miterlimit:1.41420996;stroke-dasharray:none;stroke-opacity:1"
     id="rect4627"
     width="46.136269"
     height="61.746281"
     x="313.4722"
     y="6.1532631" /><circle
     style="fill:#777777;fill-opacity:1;stroke:none;stroke-width:28.20200539;stroke-miterlimit:1.41420996;stroke-dasharray:none;stroke-opacity:1"
     id="path4647"
     cx="314.53226"
     cy="36.043766"
     r="28.040001" /><circle
     style="fill:#ffffff;fill-opacity:1;stroke:none;stroke-width:19.43097115;stroke-miterlimit:1.41420996;stroke-dasharray:none;stroke-opacity:1"
     id="path4649"
     cx="315.38135"
     cy="36.008045"
     r="12.5" /></g><path
   id="path2"
   style="fill:#000000;fill-rule:nonzero;stroke-width:0.65790564;fill-opacity:1"
   d="m 129.82604,20.977929 v 20.592447 c 0,1.842135 0.13159,3.55269 -1.51318,4.802711 -1.51318,1.25002 -4.07901,1.644764 -6.84222,1.644764 -4.21059,0 -8.68435,-0.986859 -8.68435,-0.986859 l -0.98686,2.631623 c 0,0 6.2501,1.315811 10.78965,1.381602 3.81585,0.06579 7.17117,-0.789487 9.01331,-2.894785 1.51318,-1.710555 1.97372,-3.684272 1.90793,-7.03959 V 20.977929 h -3.68428"
   inkscape:connector-curvature="0" /><path
   id="path4"
   style="fill:#000000;fill-rule:nonzero;stroke-width:0.65790564;fill-opacity:1"
   d="m 160.55024,32.359697 c -2.76321,-1.513183 -6.11853,-2.30267 -9.93438,-2.30267 -3.75006,0 -7.10538,0.789487 -9.93437,2.30267 -3.55269,1.907926 -5.32904,4.73692 -5.32904,8.289611 0,3.55269 1.77635,6.381684 5.32904,8.289611 2.82899,1.513183 6.11852,2.302669 9.93437,2.302669 3.75006,0 7.10538,-0.789486 9.86859,-2.302669 3.55269,-1.907927 5.32903,-4.736921 5.32903,-8.289611 0,-3.618481 -1.77634,-6.381685 -5.26324,-8.289611 m -2.17109,14.473924 c -2.17109,1.25002 -4.73692,1.842135 -7.76329,1.842135 -3.09215,0 -5.72378,-0.592115 -7.82908,-1.776345 -2.56583,-1.447392 -3.81585,-3.4869 -3.81585,-6.250103 0,-2.697413 1.31581,-4.802711 3.81585,-6.250104 2.1053,-1.18423 4.73693,-1.776345 7.82908,-1.776345 3.02637,0 5.65799,0.592115 7.82908,1.776345 2.50004,1.447393 3.81585,3.552691 3.81585,6.250104 -0.0658,2.631622 -1.31581,4.73692 -3.88164,6.184313 z"
   inkscape:connector-curvature="0" /><path
   id="path6"
   style="fill:#000000;fill-rule:nonzero;stroke-width:0.65790564;fill-opacity:1"
   d="m 192.91919,32.359697 c -2.7632,-1.513183 -6.11852,-2.30267 -9.93437,-2.30267 -3.75006,0 -7.10538,0.789487 -9.93438,2.30267 -3.55269,1.907926 -5.32903,4.73692 -5.32903,8.289611 0,3.55269 1.77634,6.381684 5.32903,8.289611 2.829,1.513183 6.11853,2.302669 9.93438,2.302669 3.75006,0 7.10538,-0.789486 9.86858,-2.302669 3.55269,-1.907927 5.32904,-4.736921 5.32904,-8.289611 0,-3.618481 -1.77635,-6.381685 -5.26325,-8.289611 m -2.17108,14.473924 c -2.17109,1.25002 -4.73693,1.842135 -7.76329,1.842135 -3.09216,0 -5.72378,-0.592115 -7.82908,-1.776345 -2.56583,-1.447392 -3.81585,-3.4869 -3.81585,-6.250103 0,-2.697413 1.31581,-4.802711 3.81585,-6.250104 2.1053,-1.18423 4.73692,-1.776345 7.82908,-1.776345 3.02636,0 5.65799,0.592115 7.82908,1.776345 2.50004,1.447393 3.81585,3.552691 3.81585,6.250104 -0.0658,2.631622 -1.31581,4.73692 -3.88164,6.184313 z"
   inkscape:connector-curvature="0" /><path
   id="path8"
   style="fill:#000000;fill-rule:nonzero;stroke-width:0.65790564;fill-opacity:1"
   d="m 237.59099,31.833372 c -1.97372,-1.18423 -4.53955,-1.776345 -7.56592,-1.776345 -3.88164,0 -6.9738,1.18423 -9.34226,3.552691 -2.23688,-2.368461 -5.39482,-3.552691 -9.27647,-3.552691 -3.15794,0 -5.72378,0.657906 -7.69749,1.907926 0,-0.460533 0,-1.644764 0,-1.644764 h -3.4869 v 20.460865 h 3.4869 V 36.833455 c 0.26316,-0.986858 0.92106,-1.907926 1.97371,-2.697413 1.4474,-0.986858 3.28953,-1.513183 5.5922,-1.513183 2.03951,0 3.75006,0.394743 5.19746,1.250021 1.71055,0.986858 2.50004,2.30267 2.50004,4.144805 v 12.894951 h 3.42111 V 37.951895 c 0,-1.842136 0.78948,-3.157947 2.50004,-4.144806 1.44739,-0.789487 3.22374,-1.25002 5.26324,-1.25002 2.03951,0 3.81586,0.394743 5.26325,1.25002 1.71055,0.986859 2.50004,2.30267 2.50004,4.144806 v 12.89495 h 3.4869 V 38.412429 c -0.0658,-2.894785 -1.3816,-5.131664 -3.81585,-6.579057"
   inkscape:connector-curvature="0" /><path
   id="path10"
   style="fill:#000000;fill-rule:nonzero;stroke-width:0.65790564;fill-opacity:1"
   d="m 244.10425,20.977929 v 29.868916 h 3.4869 V 20.977929 h -3.4869"
   inkscape:connector-curvature="0" /><path
   id="path12"
   style="fill:#000000;fill-rule:nonzero;stroke-width:0.65790564;fill-opacity:1"
   d="m 286.47337,20.977929 v 23.092488 h 3.4869 V 20.977929 h -3.4869"
   inkscape:connector-curvature="0" /><path
   id="path14"
   style="fill:#000000;fill-rule:nonzero;stroke-width:0.65790564;fill-opacity:1"
   d="m 277.32849,30.320189 c 0,0 0,2.828995 0,3.4869 -2.96058,-2.500041 -6.90801,-3.815852 -11.77651,-3.815852 -3.88165,0 -7.23697,0.723696 -10.00017,2.236879 -3.42111,1.907926 -5.19745,4.67113 -5.19745,8.355401 0,3.618481 1.77634,6.447475 5.32903,8.289611 2.7632,1.513183 6.11852,2.236879 10.00017,2.236879 1.90792,0 3.81585,-0.197371 5.5264,-0.657905 2.43425,-0.657906 4.47376,-1.578974 6.05274,-2.828995 0,0.723697 0,3.157947 0,3.157947 h 3.4869 V 30.320189 h -3.42111 m -23.28986,10.329119 c 0,-2.697413 1.31581,-4.802711 3.81585,-6.250104 2.1053,-1.18423 4.80271,-1.776345 7.89487,-1.776345 3.81585,0 6.77643,0.921068 8.88172,2.763204 1.84214,1.644764 2.76321,3.750062 2.76321,6.315894 0,0 0,2.236879 0,2.434251 -1.4474,1.644764 -3.61848,2.894784 -6.38169,3.750062 -1.64476,0.526324 -3.42111,0.789486 -5.26324,0.789486 -3.15795,0 -5.78957,-0.592115 -7.89487,-1.710554 -2.56583,-1.513183 -3.81585,-3.552691 -3.81585,-6.315894 z"
   inkscape:connector-curvature="0" /><path
   id="path16"
   style="fill:#000000;fill-rule:nonzero;stroke-width:0.65790564;fill-opacity:1"
   d="m 288.24972,46.965202 c -2.43425,0 -2.7632,1.250021 -2.7632,2.039507 0,0.789487 0.39474,2.039508 2.7632,2.039508 2.43425,0 2.7632,-1.315812 2.7632,-2.039508 0,-0.723696 -0.39474,-2.039507 -2.7632,-2.039507 z"
   inkscape:connector-curvature="0" /><path
   id="path18"
   style="fill:#000000;fill-rule:nonzero;stroke-width:0.65790564;fill-opacity:1"
   d="m 300.74993,24.662201 c 0,2.039507 -1.31581,3.750062 -3.68427,3.750062 -2.36847,0 -3.68428,-1.710555 -3.68428,-3.750062 0,-2.039507 1.31581,-3.750062 3.68428,-3.750062 2.36846,0 3.68427,1.710555 3.68427,3.750062 z m -6.57906,0 c 0,1.710555 1.05265,3.026366 2.89479,3.026366 1.84213,0 2.89478,-1.315811 2.89478,-3.026366 0,-1.710555 -1.05265,-3.026366 -2.89478,-3.026366 -1.84214,0 -2.89479,1.315811 -2.89479,3.026366 z m 3.61848,0.460534 c 1.44739,-0.263162 1.31581,-2.434251 -0.32895,-2.434251 h -1.77635 v 3.815853 h 0.7237 v -1.315812 h 0.65791 l 1.05264,1.315812 h 0.78949 V 26.372756 Z M 297.4604,23.34639 c 0.85528,0 0.85528,1.25002 0,1.25002 h -1.05265 v -1.25002 z"
   inkscape:connector-curvature="0" /><path
   style="fill:#000000;fill-rule:nonzero;stroke-width:0.65790564;fill-opacity:1"
   d="M 62.061764,36.043968 61.140696,35.1229 c -2.960575,-2.960575 -3.815852,-7.10538 -2.763203,-10.855442 -2.960576,-0.657906 -5.131664,-3.289529 -5.131664,-6.447476 0,-3.618481 2.960575,-6.579056 6.579056,-6.579056 3.289528,0 5.986941,2.36846 6.513266,5.526407 3.55269,-0.855277 7.434333,0.131582 10.197537,2.894785 l 0.394743,0.394744 -4.868501,4.868501 -0.394744,-0.394743 c -1.578973,-1.578974 -4.144805,-1.578974 -5.723779,0 -1.578973,1.578973 -1.578973,4.144805 0,5.723779 l 10.921234,10.921233 -4.868502,4.868502 -5.131664,-5.131664 z"
   id="j-green"
   inkscape:connector-curvature="0" /><path
   style="fill:#000000;fill-rule:nonzero;stroke-width:0.65790564;fill-opacity:1"
   d="m 67.522381,30.649142 5.131664,-5.131664 4.868501,-4.868501 0.921068,-0.921068 c 2.894785,-2.894785 7.105381,-3.815853 10.789653,-2.763204 0.460534,-3.223737 3.223737,-5.657988 6.513265,-5.657988 3.618481,0 6.579058,2.960575 6.579058,6.579056 0,3.355319 -2.500043,6.118522 -5.72378,6.513266 1.052649,3.684271 0.131581,7.829077 -2.763204,10.723861 l -0.394743,0.394744 -4.736921,-4.868502 0.394744,-0.394743 c 1.578973,-1.578974 1.578973,-4.144806 0,-5.723779 -1.578974,-1.578974 -4.144806,-1.578974 -5.723779,0 l -0.921068,0.921068 -4.868502,4.868501 -5.131664,5.131664 z"
   id="j-orange"
   inkscape:connector-curvature="0" /><path
   style="fill:#000000;fill-rule:nonzero;stroke-width:0.65790564;fill-opacity:1"
   d="m 89.430638,55.189022 c -3.750062,1.11844 -7.960658,0.263162 -10.921233,-2.697413 l -0.394743,-0.394743 4.868501,-4.868502 0.394744,0.394743 c 1.578973,1.578974 4.144805,1.578974 5.723779,0 1.578973,-1.578973 1.578973,-4.144805 0,-5.723779 l -0.921068,-0.921067 -4.868502,-4.868502 -5.131664,-5.131664 4.868502,-4.868502 10.987024,10.987024 c 2.763203,2.763204 3.750062,6.710638 2.894785,10.329119 3.223737,0.460534 5.657987,3.223737 5.657987,6.513266 0,3.61848 -2.960574,6.579056 -6.579055,6.579056 -3.289529,-0.06579 -5.986942,-2.36846 -6.579057,-5.329036 z"
   id="j-red"
   inkscape:connector-curvature="0" /><path
   style="fill:#000000;fill-rule:nonzero;stroke-width:0.65790564;fill-opacity:1"
   d="m 87.522712,41.504585 -5.131664,5.131664 -4.868502,4.868502 -0.921067,0.921068 c -2.828995,2.828994 -6.776428,3.750062 -10.329119,2.894784 -0.657905,2.960576 -3.289528,5.131664 -6.447475,5.131664 -3.618481,0 -6.579056,-2.960575 -6.579056,-6.579056 0,-3.092157 2.171088,-5.723779 5.065873,-6.381685 -0.921068,-3.684271 0,-7.631705 2.828994,-10.460699 l 0.394744,-0.394744 4.868501,4.868502 -0.394743,0.394743 c -1.578974,1.578974 -1.578974,4.144806 0,5.723779 1.578973,1.578974 4.144805,1.578974 5.723779,0 l 0.921068,-0.921067 4.868501,-4.868502 5.131664,-5.131664 z"
   id="j-blue"
   inkscape:connector-curvature="0" />
<g
   inkscape:groupmode="layer"
   id="layer1"
   inkscape:label="Layer 1"><ellipse
     style="fill:#444444;fill-opacity:0"
     id="path4579"
     cx="40.239151"
     cy="2.2218513"
     rx="41.511078"
     ry="35.845219" /></g></svg>