<?xml version="1.0" encoding="UTF-8" standalone="no"?>
<svg
   xmlns:dc="http://purl.org/dc/elements/1.1/"
   xmlns:cc="http://creativecommons.org/ns#"
   xmlns:rdf="http://www.w3.org/1999/02/22-rdf-syntax-ns#"
   xmlns:svg="http://www.w3.org/2000/svg"
   xmlns="http://www.w3.org/2000/svg"
   xmlns:sodipodi="http://sodipodi.sourceforge.net/DTD/sodipodi-0.dtd"
   xmlns:inkscape="http://www.inkscape.org/namespaces/inkscape"
   width="100%"
   height="100%"
   viewBox="0 0 80 79"
   version="1.1"
   xml:space="preserve"
   style="clip-rule:evenodd;fill-rule:evenodd;stroke-linejoin:round;stroke-miterlimit:1.41420996"
   id="svg26"
   sodipodi:docname="Joomla-coaster-grey-on-black.svg"
   inkscape:version="0.92.4 (5da689c313, 2019-01-14)"><metadata
   id="metadata32"><rdf:RDF><cc:Work
       rdf:about=""><dc:format>image/svg+xml</dc:format><dc:type
         rdf:resource="http://purl.org/dc/dcmitype/StillImage" /><dc:title /></cc:Work></rdf:RDF></metadata><defs
   id="defs30" /><sodipodi:namedview
   pagecolor="#ffffff"
   bordercolor="#666666"
   borderopacity="1"
   objecttolerance="10"
   gridtolerance="10"
   guidetolerance="10"
   inkscape:pageopacity="0"
   inkscape:pageshadow="2"
   inkscape:window-width="3840"
   inkscape:window-height="2123"
   id="namedview28"
   showgrid="false"
   inkscape:zoom="8.648294"
   inkscape:cx="83.095747"
   inkscape:cy="44.12519"
   inkscape:window-x="0"
   inkscape:window-y="1050"
   inkscape:window-maximized="1"
   inkscape:current-layer="layer2" />
    
    <g
   inkscape:groupmode="layer"
   id="layer2"
   inkscape:label="Layer 2"><rect
     style="clip-rule:evenodd;fill:#000000;fill-opacity:1;fill-rule:evenodd;stroke:#000000;stroke-width:26.37727737;stroke-linejoin:round;stroke-miterlimit:1.41420996;stroke-dasharray:none;stroke-opacity:1"
     id="rect4581"
     width="40.708752"
     height="38.622723"
     x="19.585899"
     y="20.689133" /></g><g
   inkscape:groupmode="layer"
   id="layer3"
   inkscape:label="Layer 3" /><path
   style="fill:#777777;fill-opacity:1;fill-rule:nonzero;stroke-width:0.65790564"
   d="m 24.084749,40.164969 -0.921068,-0.921068 c -2.960575,-2.960575 -3.815852,-7.105379 -2.763203,-10.855441 -2.960576,-0.657907 -5.131664,-3.289529 -5.131664,-6.447476 0,-3.618481 2.960575,-6.579056 6.579056,-6.579056 3.289528,0 5.986941,2.36846 6.513266,5.526407 3.55269,-0.855277 7.434333,0.131582 10.197537,2.894785 l 0.394743,0.394743 -4.868501,4.868502 -0.394744,-0.394743 c -1.578973,-1.578974 -4.144805,-1.578974 -5.723779,0 -1.578973,1.578973 -1.578973,4.144805 0,5.723779 l 10.921234,10.921233 -4.868502,4.868502 -5.131664,-5.131664 z"
   id="j-green"
   inkscape:connector-curvature="0" /><path
   style="fill:#777777;fill-opacity:1;fill-rule:nonzero;stroke-width:0.65790564"
   d="m 29.545366,34.770144 5.131664,-5.131664 4.868501,-4.868502 0.921068,-0.921067 c 2.894785,-2.894785 7.105381,-3.815853 10.789653,-2.763205 0.460534,-3.223737 3.223737,-5.657987 6.513265,-5.657987 3.618481,0 6.579058,2.960575 6.579058,6.579055 0,3.355319 -2.500043,6.118522 -5.72378,6.513266 1.052649,3.684272 0.131581,7.829077 -2.763204,10.723861 l -0.394743,0.394745 -4.736921,-4.868502 0.394744,-0.394743 c 1.578973,-1.578974 1.578973,-4.144806 0,-5.723779 -1.578974,-1.578974 -4.144806,-1.578974 -5.723779,0 l -0.921068,0.921068 -4.868502,4.868501 -5.131664,5.131664 z"
   id="j-orange"
   inkscape:connector-curvature="0" /><path
   style="fill:#777777;fill-opacity:1;fill-rule:nonzero;stroke-width:0.65790564"
   d="m 51.453623,59.310023 c -3.750062,1.11844 -7.960658,0.263162 -10.921233,-2.697412 l -0.394743,-0.394743 4.868501,-4.868502 0.394744,0.394743 c 1.578973,1.578974 4.144805,1.578974 5.723779,0 1.578973,-1.578973 1.578973,-4.144805 0,-5.723779 l -0.921068,-0.921067 -4.868502,-4.868502 -5.131664,-5.131664 4.868502,-4.868502 10.987024,10.987023 c 2.763203,2.763205 3.750062,6.710639 2.894785,10.329119 3.223737,0.460535 5.657987,3.223737 5.657987,6.513266 0,3.61848 -2.960574,6.579057 -6.579055,6.579057 -3.289529,-0.06579 -5.986942,-2.36846 -6.579057,-5.329037 z"
   id="j-red"
   inkscape:connector-curvature="0" /><path
   style="fill:#777777;fill-opacity:1;fill-rule:nonzero;stroke-width:0.65790564"
   d="m 49.545697,45.625586 -5.131664,5.131664 -4.868502,4.868502 -0.921067,0.921068 c -2.828995,2.828994 -6.776428,3.750062 -10.329119,2.894784 -0.657905,2.960576 -3.289528,5.131664 -6.447475,5.131664 -3.618481,0 -6.579056,-2.960575 -6.579056,-6.579056 0,-3.092157 2.171088,-5.723779 5.065873,-6.381685 -0.921068,-3.684271 0,-7.631705 2.828994,-10.460699 l 0.394744,-0.394744 4.868501,4.868502 -0.394743,0.394743 c -1.578974,1.578974 -1.578974,4.144806 0,5.723779 1.578973,1.578974 4.144805,1.578974 5.723779,0 l 0.921068,-0.921067 4.868501,-4.868502 5.131664,-5.131664 z"
   id="j-blue"
   inkscape:connector-curvature="0" />
<g
   inkscape:groupmode="layer"
   id="layer1"
   inkscape:label="Layer 1"><ellipse
     style="fill:#444444;fill-opacity:0"
     id="path4579"
     cx="40.239151"
     cy="2.2218513"
     rx="41.511078"
     ry="35.845219" /></g></svg>